<svg xmlns="http://www.w3.org/2000/svg" viewBox="0 0 800 200">
  <defs>
    <linearGradient id="bg" x1="0%" y1="0%" x2="100%" y2="100%">
      <stop offset="0%" style="stop-color:#000000"/>
      <stop offset="100%" style="stop-color:#18181b"/>
    </linearGradient>
  </defs>
  <rect width="800" height="200" fill="url(#bg)"/>
  <circle cx="400" cy="85" r="40" fill="#ffffff"/>
  <rect x="382" y="65" width="36" height="8" rx="2" fill="#000000"/>
  <rect x="382" y="97" width="36" height="8" rx="2" fill="#000000"/>
  <rect x="365" y="82" width="8" height="36" rx="2" fill="#000000"/>
  <rect x="427" y="82" width="8" height="36" rx="2" fill="#000000"/>
  <rect x="392" y="72" width="16" height="4" rx="1" fill="#000000"/>
  <rect x="392" y="94" width="16" height="4" rx="1" fill="#000000"/>
  <rect x="392" y="82" width="4" height="16" rx="1" fill="#000000"/>
  <rect x="404" y="82" width="4" height="16" rx="1" fill="#000000"/>
  <circle cx="400" cy="85" r="6" fill="#000000"/>
  <text x="400" y="155" text-anchor="middle" font-family="Arial" font-size="42" fill="#ffffff" font-weight="bold">HERMIT</text>
  <text x="400" y="180" text-anchor="middle" font-family="Arial" font-size="14" fill="#71717a">AI Agent OS</text>
  <rect x="320" y="188" width="160" height="1" fill="#ffffff"/>
</svg>