<svg xmlns="http://www.w3.org/2000/svg" viewBox="0 0 800 500">
  <rect width="800" height="500" fill="#09090b"/>
  <rect x="0" y="0" width="800" height="60" fill="#18181b"/>
  <circle cx="35" cy="30" r="18" fill="#fff"/>
  <text x="35" y="35" text-anchor="middle" font-family="Arial" font-size="16" fill="#000" font-weight="bold">H</text>
  <rect x="70" y="20" width="120" height="20" rx="4" fill="#27272a"/>
  <text x="80" y="34" font-family="Arial" font-size="11" fill="#a1a1aa">your agents</text>
  <rect x="200" y="20" width="120" height="20" rx="4" fill="#27272a"/>
  <text x="210" y="34" font-family="Arial" font-size="11" fill="#a1a1aa">system health</text>
  <rect x="330" y="20" width="120" height="20" rx="4" fill="#27272a"/>
  <text x="340" y="34" font-family="Arial" font-size="11" fill="#a1a1aa">published apps</text>
  <rect x="460" y="20" width="120" height="20" rx="4" fill="#27272a"/>
  <text x="470" y="34" font-family="Arial" font-size="11" fill="#a1a1aa">containers</text>
  <circle cx="750" cy="30" r="4" fill="#fff">
    <animate attributeName="opacity" values="1;0.3;1" dur="2s" repeatCount="indefinite"/>
  </circle>
  <text x="680" y="34" font-family="Arial" font-size="10" fill="#71717a">live socket connection active</text>
  <text x="40" y="100" font-family="Arial" font-size="28" fill="#fff" font-weight="bold">your agents</text>
  <rect x="40" y="120" width="340" height="180" rx="24" fill="#27272a" stroke="#3f3f46"/>
  <rect x="40" y="120" width="340" height="80" rx="24" fill="#3f3f46"/>
  <rect x="60" y="150" width="50" height="50" rx="25" fill="#71717a"/>
  <text x="95" y="180" text-anchor="middle" font-family="Arial" font-size="20" fill="#fff" font-weight="bold">R</text>
  <rect x="120" y="155" width="140" height="16" rx="4" fill="#52525b"/>
  <text x="120" y="180" font-family="Arial" font-size="18" fill="#fff" font-weight="bold">Rain</text>
  <text x="120" y="200" font-family="Arial" font-size="12" fill="#a1a1aa">Assistant</text>
  <rect x="260" y="150" width="100" height="28" rx="6" fill="#18181b"/>
  <text x="275" y="168" font-family="Arial" font-size="11" fill="#fff" font-weight="bold">Chat</text>
  <rect x="270" y="152" width="8" height="8" rx="4" fill="#22c55e"/>
  <text x="310" y="164" font-family="Arial" font-size="9" fill="#a1a1aa">running</text>
  <rect x="40" y="220" width="340" height="60" rx="16" fill="#18181b"/>
  <text x="55" y="245" font-family="Arial" font-size="10" fill="#71717a">Provider</text>
  <text x="55" y="262" font-family="Arial" font-size="12" fill="#fff">gemini</text>
  <text x="130" y="245" font-family="Arial" font-size="10" fill="#71717a">Model</text>
  <text x="130" y="262" font-family="Arial" font-size="11" fill="#fff">gemini-3.1-flash-lite</text>
  <text x="250" y="245" font-family="Arial" font-size="10" fill="#71717a">API Calls</text>
  <text x="250" y="262" font-family="Arial" font-size="14" fill="#3b82f6" font-weight="bold">42</text>
  <text x="300" y="245" font-family="Arial" font-size="10" fill="#71717a">Context</text>
  <text x="300" y="262" font-family="Arial" font-size="14" fill="#fff">1.0M tokens</text>
  <rect x="400" y="120" width="340" height="180" rx="24" fill="#27272a" stroke="#3f3f46"/>
  <rect x="400" y="120" width="340" height="80" rx="24" fill="#3f3f46"/>
  <rect x="420" y="150" width="50" height="50" rx="25" fill="#71717a"/>
  <text x="455" y="180" text-anchor="middle" font-family="Arial" font-size="20" fill="#fff" font-weight="bold">?</text>
  <rect x="480" y="155" width="140" height="16" rx="4" fill="#52525b"/>
  <text x="480" y="180" font-family="Arial" font-size="18" fill="#fff" font-weight="bold">New Agent</text>
  <text x="480" y="200" font-family="Arial" font-size="12" fill="#a1a1aa">Not deployed</text>
  <rect x="620" y="150" width="100" height="28" rx="6" fill="#18181b"/>
  <text x="660" y="168" font-family="Arial" font-size="11" fill="#fff" font-weight="bold">Deploy</text>
  <rect x="640" y="152" width="8" height="8" rx="4" fill="#71717a"/>
  <text x="670" y="164" font-family="Arial" font-size="9" fill="#a1a1aa">stopped</text>
  <rect x="400" y="220" width="340" height="60" rx="16" fill="#18181b"/>
  <text x="420" y="260" font-family="Arial" font-size="12" fill="#71717a">Click to deploy a new AI agent</text>
  <rect x="40" y="330" width="700" height="100" rx="24" fill="#18181b"/>
  <text x="60" y="360" font-family="Arial" font-size="16" fill="#fff" font-weight="bold">Create New Agent</text>
  <text x="60" y="385" font-family="Arial" font-size="12" fill="#71717a">Deploy autonomous AI agents with custom personalities</text>
  <rect x="550" y="345" width="170" height="40" rx="20" fill="#fff"/>
  <text x="600" y="370" text-anchor="middle" font-family="Arial" font-size="12" fill="#000" font-weight="bold">+ deploy agent</text>
</svg>