<svg xmlns="http://www.w3.org/2000/svg" viewBox="0 0 400 500">
  <rect width="400" height="500" fill="#1a1a1a"/>
  <text x="200" y="30" text-anchor="middle" font-family="Arial" font-size="12" fill="#fff">Telegram</text>
  <rect x="40" y="50" width="320" height="440" rx="20" fill="#2a2a2a"/>
  <circle cx="70" cy="90" r="20" fill="#71717a"/>
  <text x="70" y="95" text-anchor="middle" font-family="Arial" font-size="16" fill="#fff">R</text>
  <rect x="100" y="75" width="220" height="30" rx="15" fill="#3b82f6"/>
  <text x="110" y="94" font-family="Arial" font-size="11" fill="#fff">Rain</text>
  <rect x="320" y="80" width="15" height="15" rx="3" fill="#22c55e"/>
  <text x="200" y="140" text-anchor="middle" font-family="Arial" font-size="14" fill="#fff" font-weight="bold">Agent Status: Rain</text>
  <text x="200" y="165" text-anchor="middle" font-family="Arial" font-size="12" fill="#a1a1aa">Model: gemini-3.1-flash-lite-preview</text>
  <text x="200" y="185" text-anchor="middle" font-family="Arial" font-size="12" fill="#a1a1aa">Provider: gemini</text>
  <text x="200" y="205" text-anchor="middle" font-family="Arial" font-size="12" fill="#a1a1aa">Context Window: 1,048,576 tokens</text>
  <text x="200" y="225" text-anchor="middle" font-family="Arial" font-size="12" fill="#3b82f6">LLM API Calls: 42</text>
  <text x="200" y="250" text-anchor="middle" font-family="Arial" font-size="12" fill="#22c55e">Container: agent-rain (Running)</text>
  <text x="200" y="270" text-anchor="middle" font-family="Arial" font-size="12" fill="#22c55e">Webhook: Active</text>
  <rect x="60" y="300" width="280" height="1" fill="#3f3f46"/>
  <text x="200" y="325" text-anchor="middle" font-family="Arial" font-size="12" fill="#fbbf24" font-weight="bold">Authorization</text>
  <text x="200" y="345" text-anchor="middle" font-family="Arial" font-size="11" fill="#a1a1aa">Allowed Users: 6585507149</text>
  <text x="200" y="365" text-anchor="middle" font-family="Arial" font-size="11" fill="#a1a1aa">Your User ID: 6585507149</text>
  <text x="200" y="385" text-anchor="middle" font-family="Arial" font-size="11" fill="#f97316">Status: Restricted</text>
  <rect x="60" y="410" width="280" height="30" rx="15" fill="#3b82f6"/>
  <text x="200" y="430" text-anchor="middle" font-family="Arial" font-size="11" fill="#fff">Dashboard: https://hermit.demo</text>
  <rect x="60" y="455" width="280" height="25" rx="12" fill="#27272a"/>
  <rect x="70" y="463" width="180" height="10" rx="5" fill="#3f3f46"/>
  <circle cx="340" cy="467" r="10" fill="#3b82f6"/>
</svg>